<svg width="1200" height="900" viewBox="0 0 1200 900" fill="none" xmlns="http://www.w3.org/2000/svg">
  <rect width="1200" height="900" rx="72" fill="#F4F1E8"/>
  <rect x="84" y="84" width="1032" height="732" rx="52" fill="#FFF8EE" stroke="#D8CFBF" stroke-width="8"/>
  <rect x="154" y="180" width="280" height="360" rx="34" fill="#1E3A5F"/>
  <rect x="214" y="252" width="280" height="360" rx="34" fill="#2F6C8F"/>
  <rect x="274" y="324" width="280" height="360" rx="34" fill="#D66A3D"/>
  <path d="M334 408H486" stroke="#FFF8EE" stroke-width="24" stroke-linecap="round"/>
  <path d="M334 456H462" stroke="#FFF8EE" stroke-width="24" stroke-linecap="round"/>
  <path d="M334 504H438" stroke="#FFF8EE" stroke-width="24" stroke-linecap="round"/>
  <path d="M334 552H414" stroke="#FFF8EE" stroke-width="24" stroke-linecap="round"/>
  <rect x="626" y="236" width="360" height="72" rx="20" fill="#1E3A5F"/>
  <rect x="626" y="352" width="430" height="36" rx="18" fill="#9AA7B6"/>
  <rect x="626" y="414" width="390" height="36" rx="18" fill="#9AA7B6"/>
  <rect x="626" y="476" width="414" height="36" rx="18" fill="#9AA7B6"/>
  <rect x="626" y="586" width="140" height="112" rx="24" fill="#1E3A5F"/>
  <rect x="786" y="586" width="140" height="112" rx="24" fill="#2F6C8F"/>
  <rect x="946" y="586" width="140" height="112" rx="24" fill="#D66A3D"/>
  <path d="M696 642H1116" stroke="#D8CFBF" stroke-width="10" stroke-linecap="round"/>
  <path d="M856 642H916" stroke="#FFF8EE" stroke-width="16" stroke-linecap="round"/>
  <path d="M1016 642H1076" stroke="#FFF8EE" stroke-width="16" stroke-linecap="round"/>
</svg>
